<svg width="696" height="557" viewBox="0 0 696 557" fill="none" xmlns="http://www.w3.org/2000/svg">
<g clip-path="url(#clip0_1597_831)">
<mask id="mask0_1597_831" style="mask-type:luminance" maskUnits="userSpaceOnUse" x="98" y="28" width="499" height="499">
<path d="M596.291 28.9551H98.708V526.045H596.291V28.9551Z" fill="white"/>
</mask>
<g mask="url(#mask0_1597_831)">
<path d="M98.708 91.2732C98.708 56.856 126.636 28.9551 161.089 28.9551C195.406 28.9551 223.468 56.7474 223.468 91.0307C223.468 125.315 251.287 153.106 285.606 153.106H409.88C444.198 153.106 472.017 181.021 472.017 215.304C472.017 249.452 499.728 277.258 533.911 277.258C568.363 277.258 596.291 305.158 596.291 339.576C596.291 373.993 568.363 401.894 533.911 401.894H409.88C375.562 401.894 347.742 429.685 347.742 463.97C347.742 498.253 319.68 526.045 285.363 526.045C251.044 526.045 222.983 498.253 222.983 463.97C222.983 429.685 195.163 401.894 160.845 401.894C126.527 401.894 98.708 374.102 98.708 339.819V91.2732Z" fill="#E3FCF7"/>
</g>
<mask id="mask1_1597_831" style="mask-type:luminance" maskUnits="userSpaceOnUse" x="82" y="39" width="531" height="476">
<path d="M612.971 39.9744H82.7754V514.915H612.971V39.9744Z" fill="white"/>
</mask>
<g mask="url(#mask1_1597_831)">
<path d="M518.456 429.076H137.793L212.173 199.508H592.837L518.456 429.076Z" fill="#27EF57" stroke="black" stroke-linecap="round" stroke-linejoin="round"/>
<path d="M514.423 419.587H133.747L208.127 190.02H588.791L514.423 419.587Z" fill="#F9EBFF" stroke="black" stroke-linecap="round" stroke-linejoin="round"/>
<path d="M185.319 384.435L237.075 221.167H514.423" stroke="black" stroke-linecap="round" stroke-linejoin="round"/>
<path d="M133.747 419.587L137.791 429.076H518.455L514.423 419.587H133.747Z" fill="#B45AF2" stroke="black" stroke-linejoin="round"/>
<path d="M514.422 419.587L588.79 190.02L592.834 199.496L518.454 429.076L514.422 419.587Z" fill="black" stroke="black" stroke-linecap="round" stroke-linejoin="round"/>
<path d="M160.856 155.591L153.404 139.698L165.317 123.855L173.026 139.245L160.856 155.591Z" fill="black" stroke="black" stroke-linecap="round" stroke-linejoin="round"/>
<path d="M160.855 155.591L178.161 158.284L190.061 142.453L173.074 139.356L160.855 155.591Z" fill="white" stroke="black" stroke-linecap="round" stroke-linejoin="round"/>
<path d="M182.158 127.161L165.318 123.867L173.076 139.368L190.063 142.465L182.145 127.161H182.158Z" fill="white" stroke="black" stroke-linecap="round" stroke-linejoin="round"/>
<path d="M214.954 208.875L202.772 206.536L192.648 238.529L210.787 241.283L223.079 224.84L214.942 208.862L214.954 208.875Z" fill="black" stroke="black" stroke-linecap="round" stroke-linejoin="round"/>
<path d="M366.937 240.83L336.567 224.375L336.935 185.404L367.121 200.769L366.937 240.83Z" fill="#00ED64" stroke="black" stroke-miterlimit="10"/>
<path d="M366.937 240.831L397.49 224.926L397.846 185.991L367.329 200.892L366.937 240.843V240.831Z" fill="black" stroke="black" stroke-linecap="round" stroke-linejoin="round"/>
<path d="M367.441 170.454L336.937 184.865L367.331 200.353L397.848 185.453L367.429 170.467L367.441 170.454Z" fill="#00ED64" stroke="black" stroke-linecap="round" stroke-linejoin="round"/>
<path d="M585.004 295.167L534.596 450.747" stroke="black" stroke-miterlimit="10" stroke-dasharray="2 2"/>
<path d="M612.394 259.159L564.989 405.47" stroke="black" stroke-miterlimit="10" stroke-dasharray="2 2"/>
<path d="M508.612 469.786L529.888 476.936L551.164 484.098L534.325 498.925L517.485 513.752L513.049 491.775L508.612 469.786Z" fill="white" stroke="black" stroke-miterlimit="10"/>
<path d="M525.281 488.665L517.486 513.752L551.165 484.098L525.281 488.665Z" fill="black"/>
<path d="M527.302 490.967L508.612 469.786" stroke="black" stroke-miterlimit="10"/>
<path d="M246.034 333.282H143.355C133.107 333.282 124.8 341.58 124.8 351.819C124.8 362.057 133.107 370.355 143.355 370.355H246.034C256.282 370.355 264.589 362.057 264.589 351.819C264.589 341.58 256.282 333.282 246.034 333.282Z" fill="black" stroke="black" stroke-miterlimit="10"/>
<path d="M123.795 351.562L125.033 356.9V353.692L123.795 351.562Z" fill="black"/>
<path d="M263.436 342.893L264.698 348.256L263.656 345.562L263.436 342.893Z" fill="black"/>
<path d="M245.114 329.388H142.435C132.187 329.388 123.88 337.688 123.88 347.925C123.88 358.163 132.187 366.462 142.435 366.462H245.114C255.362 366.462 263.669 358.163 263.669 347.925C263.669 337.688 255.362 329.388 245.114 329.388Z" fill="white" stroke="black" stroke-miterlimit="10"/>
<path d="M136.907 352.1L147.312 347.937L136.907 343.75V339.122L153.759 346.15V349.725L136.907 356.741V352.1Z" fill="#00E064"/>
<path d="M136.907 352.1L147.312 347.937L136.907 343.75V339.122L153.759 346.15V349.725L136.907 356.741V352.1Z" fill="#B1FF05" stroke="black" stroke-linecap="round" stroke-linejoin="round"/>
<path d="M159.997 347.925H254.611" stroke="black" stroke-miterlimit="10"/>
<path d="M176.998 296.208H102.863C92.6146 296.208 84.3076 304.507 84.3076 314.745C84.3076 324.983 92.6146 333.282 102.863 333.282H176.998C187.246 333.282 195.553 324.983 195.553 314.745C195.553 304.507 187.246 296.208 176.998 296.208Z" fill="black" stroke="black" stroke-miterlimit="10"/>
<path d="M83.3027 314.488L84.5406 319.826V316.618L83.3027 314.488Z" fill="black"/>
<path d="M194.401 305.819L195.664 311.182L194.634 308.489L194.401 305.819Z" fill="black"/>
<path d="M176.079 292.315H101.944C91.6956 292.315 83.3887 300.615 83.3887 310.852C83.3887 321.09 91.6956 329.388 101.944 329.388H176.079C186.327 329.388 194.634 321.09 194.634 310.852C194.634 300.615 186.327 292.315 176.079 292.315Z" fill="white" stroke="black" stroke-miterlimit="10"/>
<path d="M96.415 315.014L106.82 310.852L96.415 306.664V302.036L113.267 309.064V312.639L96.415 319.655V315.014Z" fill="#00E064"/>
<path d="M96.415 315.014L106.82 310.852L96.415 306.664V302.036L113.267 309.064V312.639L96.415 319.655V315.014Z" fill="#00ED64" stroke="black" stroke-linecap="round" stroke-linejoin="round"/>
<path d="M119.519 310.852H185.577" stroke="black" stroke-miterlimit="10"/>
<path d="M237.075 221.167V40.5865" stroke="black" stroke-linecap="round" stroke-linejoin="round"/>
<path d="M429.051 290.83C441.462 285.996 447.601 272.026 442.761 259.628C437.923 247.229 423.939 241.097 411.529 245.931C399.117 250.765 392.98 264.735 397.818 277.133C402.657 289.532 416.64 295.663 429.051 290.83Z" fill="#00ED64" stroke="black" stroke-miterlimit="10"/>
<path d="M415.371 291.96C419.954 292.915 424.857 292.56 429.514 290.637C441.819 285.544 447.652 271.452 442.554 259.159C440.63 254.507 437.406 250.797 433.485 248.238C430.801 263.971 424.599 278.945 415.358 291.972L415.371 291.96Z" fill="black" stroke="black" stroke-miterlimit="10"/>
<path d="M340.257 260.359L309.838 302.036L341.874 322.74L372.207 299.869L340.257 260.359Z" fill="#00ED64" stroke="black" stroke-linecap="round" stroke-linejoin="round"/>
<path d="M340.257 260.359L341.862 322.74L372.195 299.881L340.257 260.359Z" fill="black"/>
<path d="M528.726 59.8913L528.195 59.5846L527.581 60.6441L528.112 60.951L528.726 59.8913ZM528.112 60.951C528.466 61.1558 528.819 61.3637 529.171 61.5744L529.801 60.5246C529.444 60.3105 529.085 60.0994 528.726 59.8913L528.112 60.951ZM531.258 62.871C531.945 63.3132 532.628 63.767 533.304 64.2325L533.999 63.2242C533.312 62.7515 532.619 62.2906 531.921 61.8415L531.258 62.871ZM535.306 65.6573C535.964 66.1415 536.617 66.6371 537.263 67.1441L538.021 66.1814C537.364 65.6664 536.702 65.1631 536.033 64.6713L535.306 65.6573ZM539.173 68.6915C539.799 69.2157 540.419 69.751 541.032 70.2976L541.848 69.384C541.225 68.829 540.595 68.2852 539.959 67.7528L539.173 68.6915ZM542.841 71.9608C543.434 72.5226 544.02 73.0954 544.598 73.679L545.468 72.8176C544.881 72.225 544.287 71.6434 543.685 71.0727L542.841 71.9608ZM546.3 75.4508C546.579 75.7499 546.857 76.0518 547.131 76.3562L548.041 75.536C547.761 75.2268 547.481 74.9201 547.198 74.6165L546.3 75.4508ZM547.131 76.3562C547.41 76.6646 547.685 76.9745 547.957 77.2861L548.88 76.4805C548.603 76.164 548.324 75.8492 548.041 75.536L547.131 76.3562ZM549.564 79.1809C550.091 79.8229 550.606 80.471 551.11 81.125L552.082 80.3785C551.57 79.7144 551.047 79.0563 550.512 78.4044L549.564 79.1809ZM552.594 83.1164C553.079 83.7899 553.553 84.469 554.014 85.1536L555.03 84.4698C554.562 83.7746 554.082 83.0848 553.589 82.4009L552.594 83.1164ZM555.37 87.2346C555.811 87.9372 556.24 88.645 556.658 89.3577L557.715 88.7397C557.291 88.0158 556.855 87.2969 556.407 86.5834L555.37 87.2346ZM557.877 91.5204C558.273 92.2492 558.657 92.9829 559.027 93.7209L560.122 93.1715C559.746 92.422 559.356 91.6768 558.955 90.9365L557.877 91.5204ZM560.107 95.957C560.455 96.7092 560.79 97.4657 561.114 98.2262L562.243 97.7477C561.914 96.9754 561.572 96.207 561.219 95.4427L560.107 95.957ZM562.049 100.526C562.348 101.299 562.635 102.076 562.909 102.855L564.065 102.45C563.787 101.658 563.495 100.869 563.191 100.084L562.049 100.526ZM563.695 105.211C563.945 106.001 564.182 106.794 564.406 107.59L565.586 107.259C565.358 106.45 565.118 105.645 564.864 104.842L563.695 105.211ZM565.041 109.99C565.239 110.795 565.426 111.601 565.598 112.41L566.797 112.154C566.621 111.333 566.432 110.513 566.23 109.697L565.041 109.99ZM566.079 114.845C566.227 115.661 566.361 116.477 566.483 117.295L567.695 117.116C567.572 116.285 567.435 115.455 567.285 114.627L566.079 114.845ZM566.808 119.757C566.904 120.579 566.987 121.403 567.057 122.227L568.278 122.124C568.206 121.288 568.123 120.45 568.026 119.615L566.808 119.757ZM567.226 124.704C567.27 125.531 567.301 126.358 567.318 127.185L568.543 127.16C568.525 126.32 568.494 125.48 568.45 124.64L567.226 124.704ZM567.331 129.668C567.323 130.496 567.301 131.324 567.266 132.15L568.491 132.202C568.526 131.362 568.548 130.522 568.557 129.681L567.331 129.668ZM567.123 134.63C567.063 135.455 566.989 136.279 566.902 137.102L568.122 137.23C568.209 136.394 568.284 135.556 568.346 134.719L567.123 134.63ZM566.603 139.567C566.492 140.387 566.366 141.204 566.227 142.021L567.436 142.225C567.576 141.397 567.704 140.565 567.818 139.733L566.603 139.567ZM565.774 144.462C565.692 144.868 565.607 145.273 565.519 145.677L566.716 145.939C566.806 145.528 566.893 145.116 566.975 144.705L565.774 144.462Z" fill="black"/>
<path d="M540.099 103.984L581.793 80.8436" stroke="black" stroke-linecap="round" stroke-linejoin="round"/>
<path d="M420.347 97.8621L447.934 109.812" stroke="black" stroke-linecap="round" stroke-linejoin="round"/>
<path d="M420.286 112.457C428.118 112.457 434.466 106.114 434.466 98.2907C434.466 90.4671 428.118 84.1249 420.286 84.1249C412.455 84.1249 406.106 90.4671 406.106 98.2907C406.106 106.114 412.455 112.457 420.286 112.457Z" fill="#F9EBFF" stroke="black" stroke-linecap="round" stroke-linejoin="round"/>
<path d="M420.287 105.098C424.051 105.098 427.101 102.05 427.101 98.2907C427.101 94.5311 424.051 91.4833 420.287 91.4833C416.523 91.4833 413.473 94.5311 413.473 98.2907C413.473 102.05 416.523 105.098 420.287 105.098Z" fill="#B45AF2" stroke="black" stroke-miterlimit="10"/>
<path d="M581.793 95.0094C589.625 95.0094 595.973 88.6671 595.973 80.8436C595.973 73.0199 589.625 66.6778 581.793 66.6778C573.962 66.6778 567.613 73.0199 567.613 80.8436C567.613 88.6671 573.962 95.0094 581.793 95.0094Z" fill="#F9EBFF" stroke="black" stroke-linecap="round" stroke-linejoin="round"/>
<path d="M581.792 87.651C585.555 87.651 588.606 84.6032 588.606 80.8436C588.606 77.084 585.555 74.0362 581.792 74.0362C578.029 74.0362 574.978 77.084 574.978 80.8436C574.978 84.6032 578.029 87.651 581.792 87.651Z" fill="#B45AF2" stroke="black" stroke-miterlimit="10"/>
<mask id="mask2_1597_831" style="mask-type:luminance" maskUnits="userSpaceOnUse" x="450" y="80" width="91" height="91">
<path d="M462.153 155.431C478.699 173.76 506.973 175.217 525.319 158.7C543.666 142.172 545.125 113.926 528.592 95.5971C512.046 77.2685 483.772 75.8115 465.426 92.3281C447.079 108.857 445.62 137.103 462.153 155.431Z" fill="white"/>
</mask>
<g mask="url(#mask2_1597_831)">
<path d="M456.159 109.518L495.868 126.708L506.665 120.035L513.871 115.603L536.361 103.115" stroke="black" stroke-linecap="round" stroke-linejoin="round"/>
<path d="M495.868 147.877C507.571 147.877 517.058 138.399 517.058 126.708C517.058 115.017 507.571 105.539 495.868 105.539C484.165 105.539 474.678 115.017 474.678 126.708C474.678 138.399 484.165 147.877 495.868 147.877Z" fill="#F9EBFF" stroke="black" stroke-linecap="round" stroke-linejoin="round"/>
<path d="M495.868 136.895C501.499 136.895 506.064 132.334 506.064 126.708C506.064 121.082 501.499 116.521 495.868 116.521C490.236 116.521 485.671 121.082 485.671 126.708C485.671 132.334 490.236 136.895 495.868 136.895Z" fill="#B45AF2" stroke="black" stroke-miterlimit="10"/>
</g>
<path d="M591.194 246.94C591.194 246.94 593.155 249.046 598.462 244.124C603.768 239.214 601.807 237.096 601.807 237.096L540.357 163.267C540.357 163.267 537.943 161.823 533.212 166.206C528.481 170.589 529.744 173.099 529.744 173.099L591.194 246.928V246.94Z" fill="#00ED64" stroke="black" stroke-miterlimit="10"/>
<path d="M601.796 237.108L540.345 163.28C540.345 163.28 537.931 161.835 533.2 166.218C528.935 170.185 529.548 172.609 529.707 173.05C534.426 168.691 536.828 170.136 536.828 170.136L598.278 243.965C598.278 243.965 598.34 244.026 598.413 244.173C598.413 244.161 598.438 244.148 598.45 244.136C603.757 239.227 601.796 237.108 601.796 237.108Z" fill="black"/>
<path d="M530.553 175.291C530.553 175.291 533.274 176.65 538.397 172.034C543.52 167.418 542.454 164.577 542.454 164.577L533.973 155.174C533.973 155.174 532.759 157.195 528.482 161.039C524.205 164.896 522.072 165.887 522.072 165.887L530.553 175.291Z" fill="#00ED64" stroke="black" stroke-miterlimit="10"/>
<path d="M463 93.1851C483.491 74.734 515.087 76.3624 533.556 96.8337C552.025 117.305 550.395 148.869 529.904 167.32C509.412 185.771 477.817 184.143 459.347 163.671C440.878 143.2 442.508 111.636 463 93.1851ZM463.233 160.17C479.778 178.498 508.052 179.955 526.399 163.439C544.746 146.91 546.204 118.664 529.671 100.335C513.126 82.0067 484.852 80.5497 466.505 97.0663C448.158 113.595 446.7 141.841 463.233 160.17Z" fill="black" stroke="black" stroke-miterlimit="10"/>
<path d="M461.921 88.4467C482.412 69.9957 514.007 71.6241 532.477 92.0953C550.946 112.567 549.316 144.131 528.825 162.582C508.333 181.033 476.738 179.404 458.268 158.933C439.799 138.462 441.429 106.898 461.921 88.4467ZM462.153 155.431C478.699 173.76 506.973 175.217 525.32 158.7C543.666 142.172 545.125 113.926 528.592 95.597C512.047 77.2683 483.773 75.8114 465.426 92.328C447.079 108.857 445.62 137.103 462.153 155.431Z" fill="#26ED56" stroke="black" stroke-miterlimit="10"/>
<path d="M461.921 88.4467C482.412 69.9957 514.007 71.6241 532.477 92.0953C550.946 112.567 549.316 144.131 528.825 162.582C508.333 181.033 476.738 179.404 458.268 158.933C439.799 138.462 441.429 106.898 461.921 88.4467ZM462.153 155.431C478.699 173.76 506.973 175.217 525.32 158.7C543.666 142.172 545.125 113.926 528.592 95.597C512.047 77.2683 483.773 75.8114 465.426 92.328C447.079 108.857 445.62 137.103 462.153 155.431Z" fill="#00ED64" stroke="black" stroke-miterlimit="10"/>
<path d="M531.214 160.574L540.136 170.43C540.136 170.43 543.274 166.916 542.514 164.516L535.05 156.276L531.214 160.586V160.574Z" fill="black"/>
</g>
</g>
<defs>
<clipPath id="clip0_1597_831">
<rect width="696" height="556.8" fill="white"/>
</clipPath>
</defs>
</svg>
